<svg width="117" height="561" viewBox="0 0 117 561" fill="none" xmlns="http://www.w3.org/2000/svg">
<path fill-rule="evenodd" clip-rule="evenodd" d="M248.026 1.03504C296.387 2.19845 339.191 31.003 377.979 59.9469C413.854 86.7168 437.315 124.33 462.696 161.223C490.112 201.072 527.458 237.258 533.036 285.324C538.796 334.957 517.878 383.634 493.572 427.274C469.035 471.328 437.405 512.93 392.998 536.747C349.157 560.26 297.682 561.764 248.026 558.966C200.267 556.275 152.95 545.975 112.178 520.925C71.9876 496.231 36.896 461.477 18.5579 417.979C1.06975 376.497 14.4827 330.321 12.8525 285.324C11.1533 238.424 -10.0956 189.966 8.74039 146.993C27.949 103.169 73.5986 78.5048 114.418 53.6064C155.992 28.2474 199.359 -0.135731 248.026 1.03504Z" stroke="#0045DB" stroke-opacity="0.3" stroke-width="2"/>
<path fill-rule="evenodd" clip-rule="evenodd" d="M249.097 23.0322C293.556 24.102 332.907 50.5878 368.566 77.2016C401.547 101.817 423.115 136.402 446.449 170.325C471.653 206.966 505.985 240.239 511.113 284.435C516.409 330.073 497.179 374.832 474.834 414.958C452.276 455.466 423.198 493.719 382.373 515.619C342.069 537.239 294.747 538.622 249.097 536.05C205.191 533.575 161.691 524.104 124.209 501.07C87.2607 478.365 55.0001 446.408 38.1414 406.412C22.0641 368.269 34.3949 325.81 32.8963 284.435C31.3342 241.311 11.7995 196.754 29.1159 157.24C46.7749 116.944 88.7416 94.2656 126.268 71.3715C164.488 48.0539 204.357 21.9557 249.097 23.0322Z" stroke="#0045DB" stroke-opacity="0.3" stroke-width="2"/>
<path fill-rule="evenodd" clip-rule="evenodd" d="M250.632 45.0295C291.28 46.0076 327.258 70.2262 359.86 94.5618C390.014 117.07 409.734 148.694 431.068 179.713C454.111 213.218 485.501 243.643 490.189 284.056C495.031 325.786 477.449 366.714 457.019 403.405C436.395 440.445 409.81 475.424 372.484 495.449C335.634 515.219 292.368 516.483 250.632 514.131C210.489 511.868 170.717 503.208 136.448 482.146C102.667 461.384 73.1715 432.163 57.7579 395.591C43.0586 360.713 54.3325 321.889 52.9623 284.056C51.5341 244.623 33.6739 203.88 49.506 167.749C65.6513 130.902 104.021 110.165 138.33 89.2308C173.274 67.9092 209.726 44.0451 250.632 45.0295Z" stroke="#0045DB" stroke-opacity="0.3" stroke-width="2"/>
<path fill-rule="evenodd" clip-rule="evenodd" d="M252.337 63.0273C289.992 63.9326 323.319 86.3476 353.52 108.871C381.453 129.703 399.72 158.973 419.482 187.682C440.828 218.691 469.906 246.85 474.249 284.254C478.734 322.877 462.448 360.757 443.522 394.716C424.417 428.997 399.79 461.371 365.214 479.905C331.079 498.203 291 499.373 252.337 497.196C215.151 495.102 178.31 487.086 146.565 467.593C115.272 448.377 87.949 421.332 73.6708 387.483C60.0543 355.203 70.4977 319.269 69.2285 284.254C67.9055 247.758 51.3608 210.049 66.0268 176.608C80.9828 142.505 116.526 123.312 148.308 103.937C180.678 84.2032 214.445 62.1162 252.337 63.0273Z" stroke="#0045DB" stroke-opacity="0.3" stroke-width="2"/>
</svg>
