<svg width="198" height="765" viewBox="0 0 198 765" fill="none" xmlns="http://www.w3.org/2000/svg">
<path fill-rule="evenodd" clip-rule="evenodd" d="M-419.019 225.491C-388.354 188.078 -339.314 172.048 -292.634 159.271C-249.46 147.453 -205.373 152.093 -160.673 154.775C-112.391 157.672 -60.8883 150.488 -19.5609 175.656C23.1142 201.646 48.6262 248.08 68.081 294.088C87.7208 340.533 101.065 391.061 92.5263 440.724C84.0967 489.753 53.6187 531.262 20.8684 568.691C-10.6317 604.69 -47.8588 635.66 -92.6889 652.396C-136.88 668.894 -185.867 675.183 -231.442 662.884C-274.905 651.155 -303.061 612.176 -339.541 585.782C-377.563 558.272 -428.839 545.218 -451.134 503.933C-473.87 461.831 -465.236 410.668 -459.757 363.169C-454.177 314.792 -449.879 263.141 -419.019 225.491Z" stroke="#0045DB" stroke-opacity="0.3" stroke-width="2"/>
<path fill-rule="evenodd" clip-rule="evenodd" d="M-401.017 238.177C-372.826 203.783 -327.738 189.05 -284.82 177.306C-245.126 166.445 -204.59 170.715 -163.491 173.184C-119.099 175.852 -71.7462 169.251 -33.7463 192.394C5.49285 216.292 28.9533 258.986 46.8446 301.286C64.906 343.989 77.1792 390.446 69.3328 436.104C61.5866 481.18 33.5676 519.341 3.45898 553.75C-25.5001 586.845 -59.7254 615.315 -100.942 630.698C-141.572 645.862 -186.611 651.64 -228.516 640.329C-268.478 629.542 -294.369 593.702 -327.912 569.433C-362.873 544.137 -410.019 532.131 -430.521 494.172C-451.429 455.462 -443.494 408.424 -438.461 364.754C-433.335 320.277 -429.387 272.79 -401.017 238.177Z" stroke="#0045DB" stroke-opacity="0.3" stroke-width="2"/>
<path fill-rule="evenodd" clip-rule="evenodd" d="M-382.73 250.499C-356.955 219.052 -315.729 205.584 -276.488 194.849C-240.194 184.92 -203.13 188.826 -165.55 191.086C-124.96 193.528 -81.6632 187.495 -46.9166 208.657C-11.0368 230.51 10.4167 269.548 26.778 308.225C43.2948 347.27 54.5194 389.747 47.3475 431.494C40.2671 472.708 14.6498 507.598 -12.8783 539.057C-39.3554 569.315 -70.6478 595.344 -108.334 609.407C-145.483 623.27 -186.665 628.55 -224.981 618.206C-261.521 608.341 -285.197 575.57 -315.868 553.378C-347.836 530.248 -390.945 519.268 -409.693 484.56C-428.813 449.165 -421.56 406.157 -416.961 366.23C-412.276 325.563 -408.668 282.144 -382.73 250.499Z" stroke="#0045DB" stroke-opacity="0.3" stroke-width="2"/>
<path fill-rule="evenodd" clip-rule="evenodd" d="M-367.491 260.225C-343.615 231.094 -305.442 218.606 -269.106 208.65C-235.5 199.441 -201.186 203.044 -166.395 205.122C-128.815 207.367 -88.7273 201.763 -56.5659 221.347C-23.3556 241.569 -3.5084 277.711 11.6243 313.521C26.9009 349.672 37.2765 389.003 30.6201 427.664C24.0486 465.832 0.317538 498.152 -25.1813 527.295C-49.7066 555.325 -78.6886 579.441 -113.585 592.479C-147.985 605.331 -186.114 610.237 -221.585 600.673C-255.411 591.552 -277.318 561.214 -305.706 540.676C-335.294 519.269 -375.202 509.117 -392.546 476.984C-410.234 444.215 -403.502 404.385 -399.228 367.409C-394.875 329.749 -391.518 289.54 -367.491 260.225Z" stroke="#0045DB" stroke-opacity="0.3" stroke-width="2"/>
</svg>
