<svg width="191" height="561" viewBox="0 0 191 561" fill="none" xmlns="http://www.w3.org/2000/svg">
<path fill-rule="evenodd" clip-rule="evenodd" d="M-95.9738 1.03504C-47.6132 2.19845 -4.80919 31.003 33.9789 59.9469C69.8537 86.7168 93.3147 124.33 118.696 161.223C146.112 201.072 183.458 237.258 189.036 285.324C194.796 334.957 173.878 383.634 149.572 427.274C125.035 471.328 93.4051 512.93 48.9975 536.747C5.15656 560.26 -46.3184 561.764 -95.9738 558.966C-143.733 556.275 -191.05 545.975 -231.822 520.925C-272.012 496.231 -307.104 461.477 -325.442 417.979C-342.93 376.497 -329.517 330.321 -331.148 285.324C-332.847 238.424 -354.096 189.966 -335.26 146.993C-316.051 103.169 -270.401 78.5048 -229.582 53.6064C-188.008 28.2474 -144.641 -0.135731 -95.9738 1.03504Z" stroke="#0045DB" stroke-opacity="0.3" stroke-width="2"/>
<path fill-rule="evenodd" clip-rule="evenodd" d="M-94.9027 23.0322C-50.4437 24.102 -11.0929 50.5878 24.566 77.2016C57.5465 101.817 79.1148 136.402 102.449 170.325C127.653 206.966 161.985 240.239 167.113 284.435C172.409 330.073 153.179 374.832 130.834 414.958C108.276 455.466 79.1979 493.719 38.373 515.619C-1.93112 537.239 -49.2533 538.622 -94.9027 536.05C-138.809 533.575 -182.309 524.104 -219.791 501.07C-256.739 478.365 -289 446.408 -305.859 406.412C-321.936 368.269 -309.605 325.81 -311.104 284.435C-312.666 241.311 -332.2 196.754 -314.884 157.24C-297.225 116.944 -255.258 94.2656 -217.732 71.3715C-179.512 48.0539 -139.643 21.9557 -94.9027 23.0322Z" stroke="#0045DB" stroke-opacity="0.3" stroke-width="2"/>
<path fill-rule="evenodd" clip-rule="evenodd" d="M-93.3682 45.0295C-52.72 46.0076 -16.7421 70.2262 15.8603 94.5618C46.014 117.07 65.7335 148.694 87.0675 179.713C110.111 213.218 141.501 243.643 146.189 284.056C151.031 325.786 133.449 366.714 113.019 403.405C92.3952 440.445 65.8095 475.424 28.4838 495.449C-8.36561 515.219 -51.6316 516.483 -93.3682 514.131C-133.511 511.868 -173.283 503.208 -207.552 482.146C-241.333 461.384 -270.828 432.163 -286.242 395.591C-300.941 360.713 -289.667 321.889 -291.038 284.056C-292.466 244.623 -310.326 203.88 -294.494 167.749C-278.349 130.902 -239.979 110.165 -205.67 89.2308C-170.726 67.9092 -134.274 44.0451 -93.3682 45.0295Z" stroke="#0045DB" stroke-opacity="0.3" stroke-width="2"/>
<path fill-rule="evenodd" clip-rule="evenodd" d="M-91.6625 63.0273C-54.0084 63.9326 -20.6807 86.3476 9.52016 108.871C37.4527 129.703 55.7197 158.973 75.4822 187.682C96.8282 218.691 125.906 246.85 130.249 284.254C134.734 322.877 118.448 360.757 99.5224 394.716C80.4174 428.997 55.7901 461.371 21.2138 479.905C-12.9213 498.203 -53.0003 499.373 -91.6625 497.196C-128.849 495.102 -165.69 487.086 -197.435 467.593C-228.728 448.377 -256.051 421.332 -270.329 387.483C-283.946 355.203 -273.502 319.269 -274.772 284.254C-276.094 247.758 -292.639 210.049 -277.973 176.608C-263.017 142.505 -227.474 123.312 -195.692 103.937C-163.322 84.2032 -129.555 62.1162 -91.6625 63.0273Z" stroke="#0045DB" stroke-opacity="0.3" stroke-width="2"/>
</svg>
