<svg width="268" height="561" viewBox="0 0 268 561" fill="none" xmlns="http://www.w3.org/2000/svg">
<path fill-rule="evenodd" clip-rule="evenodd" d="M-18.9738 1.03504C29.3868 2.19845 72.1908 31.003 110.979 59.9469C146.854 86.7168 170.315 124.33 195.696 161.223C223.112 201.072 260.458 237.258 266.036 285.324C271.796 334.957 250.878 383.634 226.572 427.274C202.035 471.328 170.405 512.93 125.998 536.747C82.1566 560.26 30.6816 561.764 -18.9738 558.966C-66.7334 556.275 -114.05 545.975 -154.822 520.925C-195.012 496.231 -230.104 461.477 -248.442 417.979C-265.93 376.497 -252.517 330.321 -254.148 285.324C-255.847 238.424 -277.096 189.966 -258.26 146.993C-239.051 103.169 -193.401 78.5048 -152.582 53.6064C-111.008 28.2474 -67.6406 -0.135731 -18.9738 1.03504Z" stroke="#0045DB" stroke-opacity="0.3" stroke-width="2"/>
<path fill-rule="evenodd" clip-rule="evenodd" d="M-17.9027 23.0322C26.5563 24.102 65.9071 50.5878 101.566 77.2016C134.547 101.817 156.115 136.402 179.449 170.325C204.653 206.966 238.985 240.239 244.113 284.435C249.409 330.073 230.179 374.832 207.834 414.958C185.276 455.466 156.198 493.719 115.373 515.619C75.0689 537.239 27.7467 538.622 -17.9027 536.05C-61.8094 533.575 -105.309 524.104 -142.791 501.07C-179.739 478.365 -212 446.408 -228.859 406.412C-244.936 368.269 -232.605 325.81 -234.104 284.435C-235.666 241.311 -255.2 196.754 -237.884 157.24C-220.225 116.944 -178.258 94.2656 -140.732 71.3715C-102.512 48.0539 -62.6433 21.9557 -17.9027 23.0322Z" stroke="#0045DB" stroke-opacity="0.3" stroke-width="2"/>
<path fill-rule="evenodd" clip-rule="evenodd" d="M-16.3682 45.0295C24.28 46.0076 60.2579 70.2262 92.8603 94.5618C123.014 117.07 142.734 148.694 164.068 179.713C187.111 213.218 218.501 243.643 223.189 284.056C228.031 325.786 210.449 366.714 190.019 403.405C169.395 440.445 142.81 475.424 105.484 495.449C68.6344 515.219 25.3684 516.483 -16.3682 514.131C-56.5114 511.868 -96.2825 503.208 -130.552 482.146C-164.333 461.384 -193.828 432.163 -209.242 395.591C-223.941 360.713 -212.667 321.889 -214.038 284.056C-215.466 244.623 -233.326 203.88 -217.494 167.749C-201.349 130.902 -162.979 110.165 -128.67 89.2308C-93.7255 67.9092 -57.2739 44.0451 -16.3682 45.0295Z" stroke="#0045DB" stroke-opacity="0.3" stroke-width="2"/>
<path fill-rule="evenodd" clip-rule="evenodd" d="M-14.6625 63.0273C22.9916 63.9326 56.3193 86.3476 86.5202 108.871C114.453 129.703 132.72 158.973 152.482 187.682C173.828 218.691 202.906 246.85 207.249 284.254C211.734 322.877 195.448 360.757 176.522 394.716C157.417 428.997 132.79 461.371 98.2138 479.905C64.0787 498.203 23.9997 499.373 -14.6625 497.196C-51.8487 495.102 -88.6903 487.086 -120.435 467.593C-151.728 448.377 -179.051 421.332 -193.329 387.483C-206.946 355.203 -196.502 319.269 -197.772 284.254C-199.094 247.758 -215.639 210.049 -200.973 176.608C-186.017 142.505 -150.474 123.312 -118.692 103.937C-86.3216 84.2032 -52.555 62.1162 -14.6625 63.0273Z" stroke="#0045DB" stroke-opacity="0.3" stroke-width="2"/>
</svg>
